<mxfile host="app.diagrams.net" modified="2022-01-16T11:36:46.473Z" agent="5.0 (Macintosh; Intel Mac OS X 10_15_7) AppleWebKit/605.1.15 (KHTML, like Gecko) Version/15.1 Safari/605.1.15" etag="R2orCwzHAMyKHsdr6Mjm" version="16.2.6" type="github">
  <diagram id="WiBwuXCG9hDuX8GpaEaw" name="Page-1">
    <mxGraphModel dx="1017" dy="724" grid="1" gridSize="10" guides="1" tooltips="1" connect="1" arrows="1" fold="1" page="1" pageScale="1" pageWidth="1500" pageHeight="1800" math="0" shadow="0">
      <root>
        <mxCell id="0" />
        <mxCell id="1" parent="0" />
        <mxCell id="iNzH9nASQERAoEXpGLzl-1" value="" style="endArrow=classic;html=1;rounded=0;" parent="1" edge="1">
          <mxGeometry relative="1" as="geometry">
            <mxPoint x="30" y="20" as="sourcePoint" />
            <mxPoint x="30" y="630" as="targetPoint" />
          </mxGeometry>
        </mxCell>
        <mxCell id="iNzH9nASQERAoEXpGLzl-2" value="&lt;p class=&quot;MsoNormal&quot; style=&quot;margin: 0pt 0pt 0.0001pt ; text-align: justify ; font-family: &amp;#34;times new roman&amp;#34;&quot;&gt;&lt;font size=&quot;4&quot;&gt;&lt;b&gt;Detect&lt;/b&gt;&lt;/font&gt;&lt;/p&gt;&lt;p class=&quot;MsoNormal&quot; style=&quot;margin: 0pt 0pt 0.0001pt ; text-align: justify ; font-family: &amp;#34;times new roman&amp;#34;&quot;&gt;&lt;font size=&quot;4&quot;&gt;&lt;b&gt;Drunk&lt;/b&gt;&lt;/font&gt;&lt;/p&gt;&lt;p class=&quot;MsoNormal&quot; style=&quot;margin: 0pt 0pt 0.0001pt ; text-align: justify ; font-family: &amp;#34;times new roman&amp;#34;&quot;&gt;&lt;font size=&quot;4&quot;&gt;&lt;b&gt;Driving&lt;/b&gt;&lt;/font&gt;&lt;/p&gt;" style="edgeLabel;resizable=0;html=1;align=center;verticalAlign=middle;" parent="iNzH9nASQERAoEXpGLzl-1" connectable="0" vertex="1">
          <mxGeometry relative="1" as="geometry">
            <mxPoint x="10" y="-135" as="offset" />
          </mxGeometry>
        </mxCell>
        <mxCell id="iNzH9nASQERAoEXpGLzl-5" value="" style="endArrow=classic;html=1;rounded=0;" parent="1" edge="1">
          <mxGeometry width="50" height="50" relative="1" as="geometry">
            <mxPoint x="30" y="90" as="sourcePoint" />
            <mxPoint x="60" y="90" as="targetPoint" />
          </mxGeometry>
        </mxCell>
        <mxCell id="iNzH9nASQERAoEXpGLzl-6" value="&lt;b&gt;1&lt;/b&gt;&lt;br&gt;Preparedness" style="rounded=0;whiteSpace=wrap;html=1;" parent="1" vertex="1">
          <mxGeometry x="60" y="70" width="90" height="40" as="geometry" />
        </mxCell>
        <mxCell id="iNzH9nASQERAoEXpGLzl-10" value="" style="endArrow=classic;html=1;rounded=0;entryX=0;entryY=0.5;entryDx=0;entryDy=0;" parent="1" target="iNzH9nASQERAoEXpGLzl-408" edge="1">
          <mxGeometry width="50" height="50" relative="1" as="geometry">
            <mxPoint x="30" y="508.29999999999995" as="sourcePoint" />
            <mxPoint x="60" y="517.0699999999999" as="targetPoint" />
          </mxGeometry>
        </mxCell>
        <mxCell id="iNzH9nASQERAoEXpGLzl-21" value="&lt;b&gt;1.3&lt;/b&gt;&lt;br&gt;Bring all the necessary equipment" style="whiteSpace=wrap;html=1;rounded=0;" parent="1" vertex="1">
          <mxGeometry x="177.5" y="150" width="77.5" height="60" as="geometry" />
        </mxCell>
        <mxCell id="F4VR1xOrTA5nXkjj_Qdz-12" value="" style="edgeStyle=orthogonalEdgeStyle;rounded=0;orthogonalLoop=1;jettySize=auto;html=1;" parent="1" source="iNzH9nASQERAoEXpGLzl-28" target="F4VR1xOrTA5nXkjj_Qdz-11" edge="1">
          <mxGeometry relative="1" as="geometry" />
        </mxCell>
        <mxCell id="iNzH9nASQERAoEXpGLzl-28" value="&lt;b&gt;1.4&lt;/b&gt;&lt;br&gt;Drive to the inspection spot" style="whiteSpace=wrap;html=1;rounded=0;" parent="1" vertex="1">
          <mxGeometry x="302.5" y="67.5" width="90" height="45" as="geometry" />
        </mxCell>
        <mxCell id="iNzH9nASQERAoEXpGLzl-405" value="&lt;b&gt;2&lt;br&gt;&lt;/b&gt;Primary&lt;br&gt;Inspection" style="whiteSpace=wrap;html=1;rounded=0;" parent="1" vertex="1">
          <mxGeometry x="60" y="283.71000000000004" width="57.5" height="44.05" as="geometry" />
        </mxCell>
        <mxCell id="iNzH9nASQERAoEXpGLzl-410" value="" style="edgeStyle=orthogonalEdgeStyle;rounded=0;orthogonalLoop=1;jettySize=auto;html=1;exitX=1;exitY=0.5;exitDx=0;exitDy=0;" parent="1" source="iNzH9nASQERAoEXpGLzl-405" target="iNzH9nASQERAoEXpGLzl-409" edge="1">
          <mxGeometry relative="1" as="geometry" />
        </mxCell>
        <mxCell id="Ud4e308_yUAF_StZVIeg-52" value="" style="edgeStyle=orthogonalEdgeStyle;rounded=0;orthogonalLoop=1;jettySize=auto;html=1;" edge="1" parent="1" source="iNzH9nASQERAoEXpGLzl-408" target="iNzH9nASQERAoEXpGLzl-425">
          <mxGeometry relative="1" as="geometry" />
        </mxCell>
        <mxCell id="iNzH9nASQERAoEXpGLzl-408" value="&lt;b&gt;3&lt;/b&gt;&lt;br&gt;Disposal" style="rounded=0;whiteSpace=wrap;html=1;" parent="1" vertex="1">
          <mxGeometry x="60" y="483.29999999999995" width="70" height="50" as="geometry" />
        </mxCell>
        <mxCell id="Ud4e308_yUAF_StZVIeg-2" value="" style="edgeStyle=orthogonalEdgeStyle;rounded=0;orthogonalLoop=1;jettySize=auto;html=1;" edge="1" parent="1" source="iNzH9nASQERAoEXpGLzl-409" target="Ud4e308_yUAF_StZVIeg-1">
          <mxGeometry relative="1" as="geometry" />
        </mxCell>
        <mxCell id="iNzH9nASQERAoEXpGLzl-409" value="&lt;b&gt;2.1&lt;/b&gt;&lt;br&gt;Intercept vehicles" style="rounded=0;whiteSpace=wrap;html=1;" parent="1" vertex="1">
          <mxGeometry x="148.75" y="280.73" width="57.5" height="50" as="geometry" />
        </mxCell>
        <mxCell id="iNzH9nASQERAoEXpGLzl-422" value="&lt;b&gt;2.6.1&lt;/b&gt;&lt;br&gt;Double check&amp;nbsp;" style="rounded=0;whiteSpace=wrap;html=1;" parent="1" vertex="1">
          <mxGeometry x="667.5" y="250.73000000000002" width="92.5" height="30" as="geometry" />
        </mxCell>
        <mxCell id="TPC7_fggb3ROqLGchiVC-47" value="" style="edgeStyle=orthogonalEdgeStyle;rounded=0;orthogonalLoop=1;jettySize=auto;html=1;fontSize=10;" parent="1" source="iNzH9nASQERAoEXpGLzl-425" target="TPC7_fggb3ROqLGchiVC-46" edge="1">
          <mxGeometry relative="1" as="geometry" />
        </mxCell>
        <mxCell id="iNzH9nASQERAoEXpGLzl-425" value="&lt;b&gt;3.1&lt;/b&gt;&lt;br&gt;Drive the drunk driver to the hospital" style="rounded=0;whiteSpace=wrap;html=1;" parent="1" vertex="1">
          <mxGeometry x="171.25" y="478.29999999999995" width="90" height="60" as="geometry" />
        </mxCell>
        <mxCell id="TPC7_fggb3ROqLGchiVC-23" value="" style="endArrow=classic;html=1;rounded=0;fontSize=10;entryX=0;entryY=0.5;entryDx=0;entryDy=0;" parent="1" target="iNzH9nASQERAoEXpGLzl-405" edge="1">
          <mxGeometry width="50" height="50" relative="1" as="geometry">
            <mxPoint x="30" y="305.73" as="sourcePoint" />
            <mxPoint x="540" y="260.73" as="targetPoint" />
          </mxGeometry>
        </mxCell>
        <mxCell id="TPC7_fggb3ROqLGchiVC-24" value="" style="strokeWidth=1;html=1;shape=mxgraph.flowchart.annotation_2;align=left;labelPosition=right;pointerEvents=1;" parent="1" vertex="1">
          <mxGeometry x="622.5" y="255.22000000000003" width="45" height="101.02" as="geometry" />
        </mxCell>
        <mxCell id="TPC7_fggb3ROqLGchiVC-25" value="" style="shape=table;startSize=0;container=1;collapsible=1;childLayout=tableLayout;fixedRows=1;rowLines=0;fontStyle=0;align=center;resizeLast=1;strokeColor=none;fillColor=none;collapsible=0;" parent="1" vertex="1">
          <mxGeometry x="605" y="224.78" width="60" height="30" as="geometry" />
        </mxCell>
        <mxCell id="TPC7_fggb3ROqLGchiVC-26" value="" style="shape=tableRow;horizontal=0;startSize=0;swimlaneHead=0;swimlaneBody=0;fillColor=none;collapsible=0;dropTarget=0;points=[[0,0.5],[1,0.5]];portConstraint=eastwest;top=0;left=0;right=0;bottom=0;strokeWidth=1;" parent="TPC7_fggb3ROqLGchiVC-25" vertex="1">
          <mxGeometry width="60" height="30" as="geometry" />
        </mxCell>
        <mxCell id="TPC7_fggb3ROqLGchiVC-27" value="" style="shape=partialRectangle;connectable=0;fillColor=none;top=0;left=0;bottom=0;right=0;editable=1;overflow=hidden;strokeWidth=1;" parent="TPC7_fggb3ROqLGchiVC-26" vertex="1">
          <mxGeometry width="30" height="30" as="geometry">
            <mxRectangle width="30" height="30" as="alternateBounds" />
          </mxGeometry>
        </mxCell>
        <mxCell id="TPC7_fggb3ROqLGchiVC-28" value="YES" style="shape=partialRectangle;connectable=0;fillColor=none;top=0;left=0;bottom=0;right=0;align=left;spacingLeft=6;overflow=hidden;strokeWidth=1;fontSize=10;" parent="TPC7_fggb3ROqLGchiVC-26" vertex="1">
          <mxGeometry x="30" width="30" height="30" as="geometry">
            <mxRectangle width="30" height="30" as="alternateBounds" />
          </mxGeometry>
        </mxCell>
        <mxCell id="TPC7_fggb3ROqLGchiVC-29" value="" style="shape=table;startSize=0;container=1;collapsible=1;childLayout=tableLayout;fixedRows=1;rowLines=0;fontStyle=0;align=center;resizeLast=1;strokeColor=none;fillColor=none;collapsible=0;" parent="1" vertex="1">
          <mxGeometry x="600" y="355.43999999999994" width="70" height="25.289999999999964" as="geometry" />
        </mxCell>
        <mxCell id="TPC7_fggb3ROqLGchiVC-30" value="" style="shape=tableRow;horizontal=0;startSize=0;swimlaneHead=0;swimlaneBody=0;fillColor=none;collapsible=0;dropTarget=0;points=[[0,0.5],[1,0.5]];portConstraint=eastwest;top=0;left=0;right=0;bottom=0;strokeWidth=1;" parent="TPC7_fggb3ROqLGchiVC-29" vertex="1">
          <mxGeometry width="70" height="25" as="geometry" />
        </mxCell>
        <mxCell id="TPC7_fggb3ROqLGchiVC-31" value="" style="shape=partialRectangle;connectable=0;fillColor=none;top=0;left=0;bottom=0;right=0;editable=1;overflow=hidden;strokeWidth=1;" parent="TPC7_fggb3ROqLGchiVC-30" vertex="1">
          <mxGeometry width="40" height="25" as="geometry">
            <mxRectangle width="40" height="25" as="alternateBounds" />
          </mxGeometry>
        </mxCell>
        <mxCell id="TPC7_fggb3ROqLGchiVC-32" value="NO" style="shape=partialRectangle;connectable=0;fillColor=none;top=0;left=0;bottom=0;right=0;align=left;spacingLeft=6;overflow=hidden;strokeWidth=1;fontSize=10;" parent="TPC7_fggb3ROqLGchiVC-30" vertex="1">
          <mxGeometry x="40" width="30" height="25" as="geometry">
            <mxRectangle width="30" height="25" as="alternateBounds" />
          </mxGeometry>
        </mxCell>
        <mxCell id="TPC7_fggb3ROqLGchiVC-33" value="&lt;b&gt;2.6.2&lt;/b&gt;&lt;br&gt;Driver leave the spot" style="rounded=0;whiteSpace=wrap;html=1;" parent="1" vertex="1">
          <mxGeometry x="667.5" y="327.76" width="122.5" height="37.02" as="geometry" />
        </mxCell>
        <mxCell id="Ud4e308_yUAF_StZVIeg-31" value="" style="edgeStyle=orthogonalEdgeStyle;rounded=0;orthogonalLoop=1;jettySize=auto;html=1;" edge="1" parent="1" source="TPC7_fggb3ROqLGchiVC-46" target="Ud4e308_yUAF_StZVIeg-30">
          <mxGeometry relative="1" as="geometry" />
        </mxCell>
        <mxCell id="TPC7_fggb3ROqLGchiVC-46" value="&lt;b&gt;3.2&lt;/b&gt;&lt;br&gt;Take two blood samples (driver&#39;s)&amp;nbsp;" style="rounded=0;whiteSpace=wrap;html=1;" parent="1" vertex="1">
          <mxGeometry x="290" y="478.29999999999995" width="87.5" height="60" as="geometry" />
        </mxCell>
        <mxCell id="F4VR1xOrTA5nXkjj_Qdz-2" value="" style="endArrow=classic;html=1;rounded=0;entryX=0;entryY=0.5;entryDx=0;entryDy=0;exitX=1;exitY=0.5;exitDx=0;exitDy=0;" parent="1" source="F4VR1xOrTA5nXkjj_Qdz-5" target="iNzH9nASQERAoEXpGLzl-28" edge="1">
          <mxGeometry width="50" height="50" relative="1" as="geometry">
            <mxPoint x="260" y="120" as="sourcePoint" />
            <mxPoint x="590" y="340" as="targetPoint" />
            <Array as="points">
              <mxPoint x="270" y="120" />
              <mxPoint x="270" y="90" />
            </Array>
          </mxGeometry>
        </mxCell>
        <mxCell id="F4VR1xOrTA5nXkjj_Qdz-3" value="" style="strokeWidth=1;html=1;shape=mxgraph.flowchart.annotation_2;align=left;labelPosition=right;pointerEvents=1;" parent="1" vertex="1">
          <mxGeometry x="150" y="60" width="27.5" height="60" as="geometry" />
        </mxCell>
        <mxCell id="F4VR1xOrTA5nXkjj_Qdz-4" value="&lt;b&gt;1.1&lt;/b&gt;&lt;br&gt;Check the inspection spot" style="whiteSpace=wrap;html=1;rounded=0;" parent="1" vertex="1">
          <mxGeometry x="177.5" y="29.999999999999986" width="77.5" height="60" as="geometry" />
        </mxCell>
        <mxCell id="F4VR1xOrTA5nXkjj_Qdz-5" value="&lt;b&gt;1.2&lt;/b&gt;&lt;br&gt;Team up" style="whiteSpace=wrap;html=1;rounded=0;" parent="1" vertex="1">
          <mxGeometry x="177.5" y="105" width="77.5" height="30" as="geometry" />
        </mxCell>
        <mxCell id="F4VR1xOrTA5nXkjj_Qdz-7" value="" style="endArrow=none;html=1;rounded=0;entryX=0;entryY=0.5;entryDx=0;entryDy=0;exitX=0.5;exitY=1;exitDx=0;exitDy=0;exitPerimeter=0;" parent="1" source="F4VR1xOrTA5nXkjj_Qdz-3" target="iNzH9nASQERAoEXpGLzl-21" edge="1">
          <mxGeometry width="50" height="50" relative="1" as="geometry">
            <mxPoint x="230" y="200" as="sourcePoint" />
            <mxPoint x="280" y="150" as="targetPoint" />
            <Array as="points">
              <mxPoint x="164" y="180" />
            </Array>
          </mxGeometry>
        </mxCell>
        <mxCell id="F4VR1xOrTA5nXkjj_Qdz-10" value="" style="endArrow=none;html=1;rounded=0;exitX=1;exitY=0.5;exitDx=0;exitDy=0;entryX=1;entryY=0.5;entryDx=0;entryDy=0;" parent="1" source="iNzH9nASQERAoEXpGLzl-21" target="F4VR1xOrTA5nXkjj_Qdz-4" edge="1">
          <mxGeometry width="50" height="50" relative="1" as="geometry">
            <mxPoint x="330" y="200" as="sourcePoint" />
            <mxPoint x="330" y="120" as="targetPoint" />
            <Array as="points">
              <mxPoint x="270" y="180" />
              <mxPoint x="270" y="120" />
              <mxPoint x="270" y="60" />
            </Array>
          </mxGeometry>
        </mxCell>
        <mxCell id="F4VR1xOrTA5nXkjj_Qdz-14" value="" style="edgeStyle=orthogonalEdgeStyle;rounded=0;orthogonalLoop=1;jettySize=auto;html=1;" parent="1" source="F4VR1xOrTA5nXkjj_Qdz-11" target="F4VR1xOrTA5nXkjj_Qdz-13" edge="1">
          <mxGeometry relative="1" as="geometry" />
        </mxCell>
        <mxCell id="F4VR1xOrTA5nXkjj_Qdz-11" value="&lt;b&gt;1.5&lt;/b&gt;&lt;br&gt;Set up the security settings" style="whiteSpace=wrap;html=1;rounded=0;" parent="1" vertex="1">
          <mxGeometry x="432.5" y="67.5" width="90" height="45" as="geometry" />
        </mxCell>
        <mxCell id="F4VR1xOrTA5nXkjj_Qdz-16" value="" style="edgeStyle=orthogonalEdgeStyle;rounded=0;orthogonalLoop=1;jettySize=auto;html=1;" parent="1" source="F4VR1xOrTA5nXkjj_Qdz-13" target="F4VR1xOrTA5nXkjj_Qdz-15" edge="1">
          <mxGeometry relative="1" as="geometry" />
        </mxCell>
        <mxCell id="F4VR1xOrTA5nXkjj_Qdz-13" value="&lt;b&gt;1.6&lt;/b&gt;&lt;br&gt;Arrange location of personnel" style="whiteSpace=wrap;html=1;rounded=0;" parent="1" vertex="1">
          <mxGeometry x="560" y="67.5" width="100" height="45" as="geometry" />
        </mxCell>
        <mxCell id="F4VR1xOrTA5nXkjj_Qdz-15" value="&lt;b&gt;1.7&lt;/b&gt;&lt;br&gt;a quick briefing" style="whiteSpace=wrap;html=1;rounded=0;" parent="1" vertex="1">
          <mxGeometry x="700" y="67.5" width="60" height="45" as="geometry" />
        </mxCell>
        <mxCell id="Ud4e308_yUAF_StZVIeg-7" value="" style="edgeStyle=orthogonalEdgeStyle;rounded=0;orthogonalLoop=1;jettySize=auto;html=1;" edge="1" parent="1" source="Ud4e308_yUAF_StZVIeg-1" target="Ud4e308_yUAF_StZVIeg-6">
          <mxGeometry relative="1" as="geometry" />
        </mxCell>
        <mxCell id="Ud4e308_yUAF_StZVIeg-1" value="&lt;b&gt;2.2&lt;/b&gt;&lt;br&gt;Explain the action to driver" style="rounded=0;whiteSpace=wrap;html=1;" vertex="1" parent="1">
          <mxGeometry x="231.25" y="280.73" width="85" height="50" as="geometry" />
        </mxCell>
        <mxCell id="Ud4e308_yUAF_StZVIeg-11" value="" style="edgeStyle=orthogonalEdgeStyle;rounded=0;orthogonalLoop=1;jettySize=auto;html=1;" edge="1" parent="1" source="Ud4e308_yUAF_StZVIeg-6" target="Ud4e308_yUAF_StZVIeg-10">
          <mxGeometry relative="1" as="geometry" />
        </mxCell>
        <mxCell id="Ud4e308_yUAF_StZVIeg-6" value="&lt;b&gt;2.3&lt;/b&gt;&lt;br&gt;Ask for the cooperation" style="rounded=0;whiteSpace=wrap;html=1;" vertex="1" parent="1">
          <mxGeometry x="343.75" y="280.73" width="72.5" height="50" as="geometry" />
        </mxCell>
        <mxCell id="Ud4e308_yUAF_StZVIeg-13" value="" style="edgeStyle=orthogonalEdgeStyle;rounded=0;orthogonalLoop=1;jettySize=auto;html=1;" edge="1" parent="1" source="Ud4e308_yUAF_StZVIeg-10" target="Ud4e308_yUAF_StZVIeg-12">
          <mxGeometry relative="1" as="geometry" />
        </mxCell>
        <mxCell id="Ud4e308_yUAF_StZVIeg-10" value="&lt;b&gt;2.4&lt;/b&gt;&lt;br&gt;Ask the driver to blow into the breathalyser" style="rounded=0;whiteSpace=wrap;html=1;" vertex="1" parent="1">
          <mxGeometry x="442.5" y="263.71000000000004" width="77.5" height="84.05" as="geometry" />
        </mxCell>
        <mxCell id="Ud4e308_yUAF_StZVIeg-12" value="&lt;b&gt;2.5&lt;/b&gt;&lt;br&gt;Check if drunk driving" style="rounded=0;whiteSpace=wrap;html=1;" vertex="1" parent="1">
          <mxGeometry x="550" y="280.74" width="78.75" height="50" as="geometry" />
        </mxCell>
        <mxCell id="Ud4e308_yUAF_StZVIeg-27" value="" style="edgeStyle=orthogonalEdgeStyle;rounded=0;orthogonalLoop=1;jettySize=auto;html=1;" edge="1" parent="1" source="Ud4e308_yUAF_StZVIeg-15" target="Ud4e308_yUAF_StZVIeg-26">
          <mxGeometry relative="1" as="geometry" />
        </mxCell>
        <mxCell id="Ud4e308_yUAF_StZVIeg-15" value="&lt;b&gt;2.7.1&lt;/b&gt;&lt;br&gt;Record the result&amp;nbsp;" style="rounded=0;whiteSpace=wrap;html=1;" vertex="1" parent="1">
          <mxGeometry x="805" y="225.22" width="110" height="30" as="geometry" />
        </mxCell>
        <mxCell id="Ud4e308_yUAF_StZVIeg-17" value="" style="strokeWidth=1;html=1;shape=mxgraph.flowchart.annotation_2;align=left;labelPosition=right;pointerEvents=1;" vertex="1" parent="1">
          <mxGeometry x="760" y="243.51" width="45" height="44.44" as="geometry" />
        </mxCell>
        <mxCell id="Ud4e308_yUAF_StZVIeg-18" value="" style="shape=table;startSize=0;container=1;collapsible=1;childLayout=tableLayout;fixedRows=1;rowLines=0;fontStyle=0;align=center;resizeLast=1;strokeColor=none;fillColor=none;collapsible=0;" vertex="1" parent="1">
          <mxGeometry x="730" y="220.73" width="60" height="30" as="geometry" />
        </mxCell>
        <mxCell id="Ud4e308_yUAF_StZVIeg-19" value="" style="shape=tableRow;horizontal=0;startSize=0;swimlaneHead=0;swimlaneBody=0;fillColor=none;collapsible=0;dropTarget=0;points=[[0,0.5],[1,0.5]];portConstraint=eastwest;top=0;left=0;right=0;bottom=0;strokeWidth=1;" vertex="1" parent="Ud4e308_yUAF_StZVIeg-18">
          <mxGeometry width="60" height="30" as="geometry" />
        </mxCell>
        <mxCell id="Ud4e308_yUAF_StZVIeg-20" value="" style="shape=partialRectangle;connectable=0;fillColor=none;top=0;left=0;bottom=0;right=0;editable=1;overflow=hidden;strokeWidth=1;" vertex="1" parent="Ud4e308_yUAF_StZVIeg-19">
          <mxGeometry width="30" height="30" as="geometry">
            <mxRectangle width="30" height="30" as="alternateBounds" />
          </mxGeometry>
        </mxCell>
        <mxCell id="Ud4e308_yUAF_StZVIeg-21" value="YES" style="shape=partialRectangle;connectable=0;fillColor=none;top=0;left=0;bottom=0;right=0;align=left;spacingLeft=6;overflow=hidden;strokeWidth=1;fontSize=10;" vertex="1" parent="Ud4e308_yUAF_StZVIeg-19">
          <mxGeometry x="30" width="30" height="30" as="geometry">
            <mxRectangle width="30" height="30" as="alternateBounds" />
          </mxGeometry>
        </mxCell>
        <mxCell id="Ud4e308_yUAF_StZVIeg-22" value="" style="shape=table;startSize=0;container=1;collapsible=1;childLayout=tableLayout;fixedRows=1;rowLines=0;fontStyle=0;align=center;resizeLast=1;strokeColor=none;fillColor=none;collapsible=0;" vertex="1" parent="1">
          <mxGeometry x="720" y="287.94999999999993" width="70" height="25.289999999999964" as="geometry" />
        </mxCell>
        <mxCell id="Ud4e308_yUAF_StZVIeg-23" value="" style="shape=tableRow;horizontal=0;startSize=0;swimlaneHead=0;swimlaneBody=0;fillColor=none;collapsible=0;dropTarget=0;points=[[0,0.5],[1,0.5]];portConstraint=eastwest;top=0;left=0;right=0;bottom=0;strokeWidth=1;" vertex="1" parent="Ud4e308_yUAF_StZVIeg-22">
          <mxGeometry width="70" height="25" as="geometry" />
        </mxCell>
        <mxCell id="Ud4e308_yUAF_StZVIeg-24" value="" style="shape=partialRectangle;connectable=0;fillColor=none;top=0;left=0;bottom=0;right=0;editable=1;overflow=hidden;strokeWidth=1;" vertex="1" parent="Ud4e308_yUAF_StZVIeg-23">
          <mxGeometry width="40" height="25" as="geometry">
            <mxRectangle width="40" height="25" as="alternateBounds" />
          </mxGeometry>
        </mxCell>
        <mxCell id="Ud4e308_yUAF_StZVIeg-25" value="NO" style="shape=partialRectangle;connectable=0;fillColor=none;top=0;left=0;bottom=0;right=0;align=left;spacingLeft=6;overflow=hidden;strokeWidth=1;fontSize=10;" vertex="1" parent="Ud4e308_yUAF_StZVIeg-23">
          <mxGeometry x="40" width="30" height="25" as="geometry">
            <mxRectangle width="30" height="25" as="alternateBounds" />
          </mxGeometry>
        </mxCell>
        <mxCell id="Ud4e308_yUAF_StZVIeg-26" value="&lt;b&gt;2.8&lt;/b&gt;&lt;br&gt;Driver sign name on the record" style="rounded=0;whiteSpace=wrap;html=1;" vertex="1" parent="1">
          <mxGeometry x="940" y="210" width="85" height="59.56" as="geometry" />
        </mxCell>
        <mxCell id="Ud4e308_yUAF_StZVIeg-28" value="&lt;b&gt;2.7.2&lt;/b&gt;&lt;br&gt;Driver leave the spot" style="rounded=0;whiteSpace=wrap;html=1;" vertex="1" parent="1">
          <mxGeometry x="805" y="276.22" width="115" height="37.02" as="geometry" />
        </mxCell>
        <mxCell id="Ud4e308_yUAF_StZVIeg-30" value="&lt;b&gt;3.3.1&lt;/b&gt;&lt;br&gt;&amp;nbsp;Driver left on his own if not drunk" style="rounded=0;whiteSpace=wrap;html=1;" vertex="1" parent="1">
          <mxGeometry x="410" y="433.29999999999995" width="87.5" height="60" as="geometry" />
        </mxCell>
        <mxCell id="Ud4e308_yUAF_StZVIeg-32" value="&lt;b&gt;3.3.2&lt;/b&gt;&lt;br&gt;Take the drunk driver to the police office" style="rounded=0;whiteSpace=wrap;html=1;" vertex="1" parent="1">
          <mxGeometry x="410" y="513.3" width="87.5" height="60" as="geometry" />
        </mxCell>
        <mxCell id="Ud4e308_yUAF_StZVIeg-33" value="" style="edgeStyle=orthogonalEdgeStyle;rounded=0;orthogonalLoop=1;jettySize=auto;html=1;entryX=0;entryY=0.5;entryDx=0;entryDy=0;exitX=1;exitY=0.5;exitDx=0;exitDy=0;" edge="1" parent="1" source="TPC7_fggb3ROqLGchiVC-46" target="Ud4e308_yUAF_StZVIeg-32">
          <mxGeometry relative="1" as="geometry">
            <mxPoint x="387.5" y="513.3" as="sourcePoint" />
            <mxPoint x="420" y="473.29999999999995" as="targetPoint" />
          </mxGeometry>
        </mxCell>
        <mxCell id="Ud4e308_yUAF_StZVIeg-55" value="" style="edgeStyle=orthogonalEdgeStyle;rounded=0;orthogonalLoop=1;jettySize=auto;html=1;" edge="1" parent="1" source="Ud4e308_yUAF_StZVIeg-40" target="Ud4e308_yUAF_StZVIeg-54">
          <mxGeometry relative="1" as="geometry" />
        </mxCell>
        <mxCell id="Ud4e308_yUAF_StZVIeg-40" value="&lt;b&gt;3.4&lt;/b&gt;&lt;br&gt;&amp;nbsp;Check blood alcohol level" style="rounded=0;whiteSpace=wrap;html=1;" vertex="1" parent="1">
          <mxGeometry x="537.5" y="468.29999999999995" width="72.5" height="55" as="geometry" />
        </mxCell>
        <mxCell id="Ud4e308_yUAF_StZVIeg-43" value="&lt;b&gt;3.6.1&lt;/b&gt;&lt;br&gt;Punishment in accordance with law" style="rounded=0;whiteSpace=wrap;html=1;" vertex="1" parent="1">
          <mxGeometry x="857.5" y="433.29999999999995" width="112.5" height="45" as="geometry" />
        </mxCell>
        <mxCell id="Ud4e308_yUAF_StZVIeg-53" value="" style="strokeWidth=1;html=1;shape=mxgraph.flowchart.annotation_2;align=left;labelPosition=right;pointerEvents=1;rotation=-180;" vertex="1" parent="1">
          <mxGeometry x="497.5" y="458.29999999999995" width="40" height="80" as="geometry" />
        </mxCell>
        <mxCell id="Ud4e308_yUAF_StZVIeg-58" value="" style="edgeStyle=orthogonalEdgeStyle;rounded=0;orthogonalLoop=1;jettySize=auto;html=1;" edge="1" parent="1" source="Ud4e308_yUAF_StZVIeg-54" target="Ud4e308_yUAF_StZVIeg-57">
          <mxGeometry relative="1" as="geometry" />
        </mxCell>
        <mxCell id="Ud4e308_yUAF_StZVIeg-54" value="&lt;b&gt;3.5&lt;/b&gt;&lt;br&gt;&amp;nbsp;Receive the test report&amp;nbsp;" style="rounded=0;whiteSpace=wrap;html=1;" vertex="1" parent="1">
          <mxGeometry x="642.5" y="468.29999999999995" width="72.5" height="55" as="geometry" />
        </mxCell>
        <mxCell id="Ud4e308_yUAF_StZVIeg-57" value="&lt;b&gt;3.5&lt;/b&gt;&lt;br&gt;&amp;nbsp;Send the report to the parties" style="rounded=0;whiteSpace=wrap;html=1;" vertex="1" parent="1">
          <mxGeometry x="740" y="468.29999999999995" width="72.5" height="55" as="geometry" />
        </mxCell>
        <mxCell id="Ud4e308_yUAF_StZVIeg-59" value="" style="strokeWidth=1;html=1;shape=mxgraph.flowchart.annotation_2;align=left;labelPosition=right;pointerEvents=1;" vertex="1" parent="1">
          <mxGeometry x="812.5" y="445.28999999999996" width="45" height="101.02" as="geometry" />
        </mxCell>
        <mxCell id="Ud4e308_yUAF_StZVIeg-60" value="" style="shape=table;startSize=0;container=1;collapsible=1;childLayout=tableLayout;fixedRows=1;rowLines=0;fontStyle=0;align=center;resizeLast=1;strokeColor=none;fillColor=none;collapsible=0;" vertex="1" parent="1">
          <mxGeometry x="760" y="420" width="110" height="25.29" as="geometry" />
        </mxCell>
        <mxCell id="Ud4e308_yUAF_StZVIeg-61" value="" style="shape=tableRow;horizontal=0;startSize=0;swimlaneHead=0;swimlaneBody=0;fillColor=none;collapsible=0;dropTarget=0;points=[[0,0.5],[1,0.5]];portConstraint=eastwest;top=0;left=0;right=0;bottom=0;strokeWidth=1;" vertex="1" parent="Ud4e308_yUAF_StZVIeg-60">
          <mxGeometry width="110" height="25" as="geometry" />
        </mxCell>
        <mxCell id="Ud4e308_yUAF_StZVIeg-62" value="" style="shape=partialRectangle;connectable=0;fillColor=none;top=0;left=0;bottom=0;right=0;editable=1;overflow=hidden;strokeWidth=1;" vertex="1" parent="Ud4e308_yUAF_StZVIeg-61">
          <mxGeometry width="40" height="25" as="geometry">
            <mxRectangle width="40" height="25" as="alternateBounds" />
          </mxGeometry>
        </mxCell>
        <mxCell id="Ud4e308_yUAF_StZVIeg-63" value="AGREE" style="shape=partialRectangle;connectable=0;fillColor=none;top=0;left=0;bottom=0;right=0;align=left;spacingLeft=6;overflow=hidden;strokeWidth=1;fontSize=10;" vertex="1" parent="Ud4e308_yUAF_StZVIeg-61">
          <mxGeometry x="40" width="70" height="25" as="geometry">
            <mxRectangle width="70" height="25" as="alternateBounds" />
          </mxGeometry>
        </mxCell>
        <mxCell id="Ud4e308_yUAF_StZVIeg-64" value="&lt;b&gt;3.6.2&lt;/b&gt;&lt;br&gt;Recheck" style="rounded=0;whiteSpace=wrap;html=1;" vertex="1" parent="1">
          <mxGeometry x="857.5" y="528.3" width="102.5" height="30" as="geometry" />
        </mxCell>
        <mxCell id="Ud4e308_yUAF_StZVIeg-65" value="" style="shape=table;startSize=0;container=1;collapsible=1;childLayout=tableLayout;fixedRows=1;rowLines=0;fontStyle=0;align=center;resizeLast=1;strokeColor=none;fillColor=none;collapsible=0;" vertex="1" parent="1">
          <mxGeometry x="770" y="548.01" width="110" height="25.29" as="geometry" />
        </mxCell>
        <mxCell id="Ud4e308_yUAF_StZVIeg-66" value="" style="shape=tableRow;horizontal=0;startSize=0;swimlaneHead=0;swimlaneBody=0;fillColor=none;collapsible=0;dropTarget=0;points=[[0,0.5],[1,0.5]];portConstraint=eastwest;top=0;left=0;right=0;bottom=0;strokeWidth=1;" vertex="1" parent="Ud4e308_yUAF_StZVIeg-65">
          <mxGeometry width="110" height="25" as="geometry" />
        </mxCell>
        <mxCell id="Ud4e308_yUAF_StZVIeg-67" value="" style="shape=partialRectangle;connectable=0;fillColor=none;top=0;left=0;bottom=0;right=0;editable=1;overflow=hidden;strokeWidth=1;" vertex="1" parent="Ud4e308_yUAF_StZVIeg-66">
          <mxGeometry width="20" height="25" as="geometry">
            <mxRectangle width="20" height="25" as="alternateBounds" />
          </mxGeometry>
        </mxCell>
        <mxCell id="Ud4e308_yUAF_StZVIeg-68" value="DISAGREE" style="shape=partialRectangle;connectable=0;fillColor=none;top=0;left=0;bottom=0;right=0;align=left;spacingLeft=6;overflow=hidden;strokeWidth=1;fontSize=10;" vertex="1" parent="Ud4e308_yUAF_StZVIeg-66">
          <mxGeometry x="20" width="90" height="25" as="geometry">
            <mxRectangle width="90" height="25" as="alternateBounds" />
          </mxGeometry>
        </mxCell>
        <mxCell id="Ud4e308_yUAF_StZVIeg-70" value="" style="endArrow=open;endFill=1;endSize=12;html=1;rounded=0;dashed=1;exitX=0.5;exitY=1;exitDx=0;exitDy=0;entryX=0.5;entryY=1;entryDx=0;entryDy=0;" edge="1" parent="1" source="Ud4e308_yUAF_StZVIeg-64" target="Ud4e308_yUAF_StZVIeg-54">
          <mxGeometry width="160" relative="1" as="geometry">
            <mxPoint x="650" y="603.3" as="sourcePoint" />
            <mxPoint x="810" y="603.3" as="targetPoint" />
            <Array as="points">
              <mxPoint x="909" y="593.3" />
              <mxPoint x="800" y="593.3" />
              <mxPoint x="680" y="593.3" />
            </Array>
          </mxGeometry>
        </mxCell>
      </root>
    </mxGraphModel>
  </diagram>
</mxfile>
